<svg xmlns="http://www.w3.org/2000/svg" viewBox="0 0 250 150" style="enable-background:new 0 0 250 150" xml:space="preserve"><path d="M14 146.5c-5.8 0-10.5-4.7-10.5-10.5V14C3.5 8.2 8.2 3.5 14 3.5h222c5.8 0 10.5 4.7 10.5 10.5v122c0 5.8-4.7 10.5-10.5 10.5H14z" style="fill:#fff"/><path d="M143.5 40.7h2.7c-.1-1.3-.1-2.4-.1-3.3V28c.6-1.1 1.2-2 1.7-2.9-.9-.2-1.8-.6-2.9-1.2-.4 1.5-1.1 3-2 4.5-1 1.4-2 2.6-3 3.5.9.5 1.5 1.1 2 1.9.8-.8 1.3-1.5 1.7-2.2v5.8c0 .9 0 2-.1 3.3zm2.9 8.6c.1.9 1.3 1.4 3.5 1.5h7.7c1.1.1 1.9-.1 2.4-.7s1.1-1.6 1.8-3c-1-.3-1.9-.7-2.7-1.3-.3 1.4-.5 2.3-.7 2.5s-.6.3-1.2.4h-5.6c-1.6 0-2.5-.2-2.5-.7s-.1-1.1-.1-1.9c0-.9 0-2 .1-3.5h-2.7c.1 1.6.1 2.9.1 3.9-.2.9-.2 1.9-.1 2.8zm20.8-1.2c-.8-1.4-2.1-3.3-3.9-5.6-.7.4-1.4.9-2.2 1.6 1.6 1.9 2.9 3.7 3.8 5.3.7-.6 1.4-1 2.3-1.3zM96.7 21c-.9-.5-1.7-1-2.5-1.4-.9 1.7-1.7 3-2.6 3.9.7.4 1.5 1 2.5 1.7.9-1.6 1.8-3 2.6-4.2zm54.7 21.6c1.3 1.4 2.5 2.6 3.5 3.8.7-.6 1.3-1.1 2-1.6-.8-.9-2-2.2-3.6-3.9-.7.7-1.3 1.3-1.9 1.7zm-.2-18.4c-.6 1.4-1.3 2.7-2.1 4.1s-1.8 2.6-2.8 3.7c.7.3 1.4.8 2.2 1.6.6-.8 1-1.4 1.3-2 0 4.5 0 7.6-.1 9.3h2.5v-.7h8.8c1.3 0 2.7 0 4.3.1V38c-1.6.1-3.1.1-4.3.1h-2.3v-1.7c2.4 0 4.2 0 5.3.1v-2.3c-1.4.1-3.1.1-5.3.1v-1.7c2.4 0 4.2 0 5.3.1v-2c-1.4.1-3.1.1-5.3.1v-1.9c2.4 0 4.3 0 5.8.1v-2.2c-1.4.1-3.6.1-6.4.1.5-.3 1-.5 1.6-.7-.7-.9-1.4-1.7-2.2-2.5-.7.5-1.3.9-1.9 1.2.9.9 1.4 1.5 1.7 2h-4.8c.4-.5.8-1 1.3-1.4-1.1-.5-2-.9-2.6-1.3zm5 13.9H152v-1.7h4.2v1.7zm0-3.8H152v-1.7h4.2v1.7zm0-5.3v1.9H152V29h4.2zM85 49c2.8-.4 6.4-.9 10.6-1.4 0-.8 0-1.6.1-2.5-4 .6-6.4.9-7.2 1v-3.6h2.2c1.2 0 2.2 0 3 .1v-2.5c-1.2.1-2.2.1-3 .1h-2.2v-3.3h3c.6 0 1.7 0 3.5.1v-2.2c-1.4.1-2.7.1-3.9.1.8-1.7 1.5-3.2 2.3-4.5-1-.5-2-.8-3-1-.5 1.9-1.1 3.8-1.7 5.5h-5.2c.6-.5 1.3-.9 2.3-1.3-.6-1.2-1.4-2.5-2.3-4-.8.6-1.5 1-2.3 1.3.9 1.4 1.5 2.7 2 4h-.7c-.6 0-1.7 0-3.3-.1v2.5c1.6-.1 2.7-.1 3.3-.1H86v3.3h-3c-.6 0-1.3 0-2.2-.1v2.5c.8-.1 1.5-.1 2.3-.1H86v3.9c-1.5.2-4.3.5-8.2.9.4 1 .7 2 1 3 1.3-.7 3.4-1.2 6.2-1.6zm59.1-5.8c-.7-.1-1.4-.3-2.3-.6-.7 3-1.4 5.1-2.3 6.2.7.4 1.4.8 2.3 1.3.9-1.7 1.7-4.1 2.3-6.9zm-4.4-19.6h18.8c2.3 0 4.7 0 7.1.1v-2.5c-2.4.1-4.8.1-7.1.1h-6.6c.8-.4 1.5-.8 2.2-1.2-.5-.7-1.2-1.7-2-3-.9.6-1.6 1.1-2.3 1.4.6.7 1.2 1.6 1.9 2.7H137c.2 2.3.3 5.4.3 9.4 0 3.9-.1 6.6-.4 8.2-.2 1.6-.6 3.2-1.2 4.8-.5 1.5-1.3 3-2.2 4.3 1.1.3 1.9.8 2.5 1.6 1.3-1.8 2.1-3.7 2.6-5.5s.8-3.8 1-5.9c0-1.7.1-6.7.1-14.5zm62.8 59h10.2v-9.5h-32l6.9-3.6c-1.8-3.9-4.4-8.2-7.7-12.7l-11.1 3.8c2 3.7 3.8 7.9 5.4 12.4h-29.1v9.5h9.1c3.2 10.6 8.6 20.1 15.9 28.5-8.1 5.4-17.6 9.1-28.5 11.1l6.5 10.2c11.4-3.2 21.4-7.8 29.8-13.7 8.8 7.2 20.1 11.7 34 13.4l3.5-11.6c-11.6-1.3-21.2-4.3-28.8-9 7.2-7 12.5-16.7 15.9-28.8zm-36.9 0h24.9c-2.6 9.1-6.6 16.5-12.1 22.1-5.1-5.5-9.4-12.9-12.8-22.1zm-63.3-44.4c-1.1-2-2.2-4.1-3.3-6.2-.9.5-1.8 1-2.7 1.4 1.4 2.3 2.6 4.4 3.3 6.2 1-.4 1.9-.9 2.7-1.4zM82.5 23.9c-.9-1.5-1.6-2.8-2.3-3.9-.8.4-1.6.8-2.5 1.3 1.3 1.6 2 3 2.3 4 .9-.4 1.7-.9 2.5-1.4zm24.4 2.2v-4c0-1.4 0-2.7.1-3.9h-3.2c.1 1.2.1 2.4.1 3.8v4.2h-3.2c-.7 0-2.1 0-4.2-.1v2.7c2.1-.1 3.6-.1 4.3-.1h3v18.6c0 .4-.5.6-1.4.7-.9 0-2 0-3.1-.1.7 1.2 1.1 2.4 1.3 3.6 1.5-.2 3-.5 4.3-.9s1.9-1.3 1.8-2.6V28.6h2.2c.9 0 1.8 0 2.7.1V26c-1.3.1-2.3.1-3 .1h-1.7zm-23.7.9h-1.3c-.7 0-1.8 0-3.3-.1v2.5c1.4-.1 2.6-.1 3.3-.1h11c.8 0 1.7 0 2.7.1v-2.6c-1.1.1-2 .1-2.7.1H91v-5.6c0-1.3 0-2.6.1-3.8h-2.9c.1 1.2.1 2.4.1 3.8v5.6h-2.5v-5.1c0-1.6 0-3 .1-4.2h-3c.1 1.2.1 2.4.1 3.6V27h.2zm-8 30.5H64v12.4H36.6v36.6H64v26.1h11.2v-26.1h28.5V69.9H75.2V57.5zM64 97.1H47.4V79.5H64v17.6zm28.8-17.6v17.6H75.2V79.5h17.6zM236 0H14C6.3 0 0 6.3 0 14v122c0 7.7 6.3 14 14 14h222c7.7 0 14-6.3 14-14V14c0-7.7-6.3-14-14-14zm7 136c0 3.9-3.1 7-7 7H14c-3.9 0-7-3.1-7-7V14c0-3.9 3.1-7 7-7h222c3.9 0 7 3.1 7 7v122z" style="fill:#d71518"/></svg>